<?xml version="1.0" encoding="UTF-8"?>
<!DOCTYPE svg PUBLIC "-//W3C//DTD SVG 1.1//EN" "http://www.w3.org/Graphics/SVG/1.1/DTD/svg11.dtd">
<!-- Creator: CorelDRAW -->
<svg xmlns="http://www.w3.org/2000/svg" xml:space="preserve" width="210mm" height="297mm" style="shape-rendering:geometricPrecision; text-rendering:geometricPrecision; image-rendering:optimizeQuality; fill-rule:evenodd; clip-rule:evenodd"
viewBox="0 0 210 297">
 <defs>
  <style type="text/css">
   <![CDATA[
    .fil1 {fill:none}
    .fil0 {fill:#1F1A17;fill-rule:nonzero}
    .fil2 {fill:#28166F;fill-rule:nonzero}
   ]]>
  </style>
 </defs>
 <g id="Ebene_x0020_1">
  <metadata id="CorelCorpID_0Corel-Layer"/>
  <polygon class="fil0" points="75.9136,159.499 80.535,159.499 80.5703,149.127 89.4956,149.127 89.5308,145.247 80.6408,145.247 80.6761,138.967 89.6367,138.967 89.672,135.087 76.1606,135.087 "/>
  <path class="fil0" d="M107.628 151.138c0,-6.2089 -2.3284,-9.9131 -7.3378,-9.9131 -5.1859,0 -8.1139,4.7272 -8.1139,9.4545 0,5.5739 3.2455,9.3192 7.7611,9.3192 2.8928,0 5.3622,-1.417 7.2319,-3.4984l-2.4694 -2.2578c-1.0936,1.1642 -2.4342,2.2931 -4.1275,2.2931 -2.9633,0 -4.057,-2.9634 -4.0922,-5.3975l11.1478 0zm-10.9362 -3.0339c0.1764,-1.7639 1.6581,-3.8453 3.5984,-3.8453 2.2578,0 3.1397,1.9403 3.2455,3.8453l-6.8439 0z"/>
  <polygon class="fil0" points="111.156,159.499 115.46,159.499 115.672,133.041 111.368,133.041 "/>
  <path class="fil0" d="M119.623 150.609c0,5.0447 2.7164,9.3898 8.5019,9.3898 5.3623,0 8.502,-4.3451 8.502,-9.3898 0,-5.2564 -2.8575,-9.3839 -8.502,-9.3839 -5.2211,0 -8.5019,4.692 -8.5019,9.3839zm4.3039 0.1411c0,-2.4694 0.9877,-6.0678 4.198,-6.0678 2.8928,0 4.1981,2.3637 4.1981,6.0678 0,2.4695 -1.0936,5.7856 -4.1981,5.7856 -3.2103,0 -4.198,-3.6336 -4.198,-5.7856z"/>
  <path class="fil0" d="M76.0093 177.138l1.7215 0 0.0861 -7.0368c0.9253,-1.7216 2.0659,-2.3026 2.776,-2.3026 0.2367,0 0.495,0.0646 0.6671,0.1076l0.5165 -1.6355c-0.2367,-0.0861 -0.5595,-0.1506 -0.9254,-0.1506 -1.5494,0 -2.6038,1.4633 -2.9696,2.4317l-0.0431 -0.0431 0.0215 -2.0873 -1.7645 0 -0.0861 10.7166z"/>
  <path class="fil0" d="M91.8476 175.783c-0.2798,0.1937 -0.538,0.3658 -0.9038,0.3658 -0.6671,0 -0.7747,-0.7532 -0.7747,-1.5279 0,-1.8937 0.1721,-3.7659 0.1721,-5.7887 0,-1.657 -0.9038,-2.7114 -2.6899,-2.7114 -1.5494,0 -2.238,0.3873 -4.3899,1.7861l0.7101 1.119c1.5709,-1.1836 2.2595,-1.4848 3.0988,-1.4848 1.1405,0 1.6355,0.6886 1.6355,1.6139 0,0.4519 -0.0216,0.9038 -0.0431,1.3557 -2.3456,0.0861 -6.2621,0.7963 -6.2621,3.8305 0,1.8076 1.2051,3.1024 3.0988,3.1024 1.3772,0 2.4101,-0.7783 3.2279,-1.7897 0.0861,0.9038 0.624,1.7897 1.5924,1.7897 0.7532,0 1.3988,-0.3049 2.0013,-0.7783l-0.4734 -0.8823zm-3.271 -1.2051c-0.6671,0.8177 -1.4848,1.5709 -2.5392,1.5709 -1.1836,0 -1.9153,-0.624 -1.9153,-1.8291 0,-1.8292 1.5494,-2.3887 4.5406,-2.776l-0.0861 3.0342z"/>
  <path class="fil0" d="M92.7729 166.422l0 1.2911 1.8292 0 -0.0431 3.9165c-0.0215,1.4849 -0.0215,2.3672 -0.0215,3.0773 0,1.7001 0.6456,2.7366 2.3026,2.7366 0.9468,0 1.9798,-0.4555 2.6899,-0.9289l-0.5595 -1.1191c-0.4089,0.2583 -1.1405,0.6241 -1.7215,0.6241 -0.7317,0 -0.9899,-0.4949 -0.9899,-1.3772 0,-0.538 0,-1.3342 0.0215,-2.5393l0.043 -4.39 2.9482 0 0 -1.2911 -2.9267 0 0.0431 -3.9596 -1.7216 0 -0.043 3.9596 -1.8507 0z"/>
  <path class="fil0" d="M100.929 177.138l1.7216 0 0.086 -10.7166 -1.7215 0 -0.0861 10.7166zm0 -12.9547l1.8507 0 0 -1.9367 -1.8507 0 0 1.9367z"/>
  <path class="fil0" d="M105.878 177.138l1.7215 0 0.0861 -7.4887c1.0975,-1.3342 2.0874,-1.9798 3.2064,-1.9798 1.1836,0 1.9583,0.538 1.9583,1.7 0,1.0545 -0.0216,2.0013 -0.0216,2.9482l-0.043 4.8203 1.7216 0 0.043 -5.3153c0,-0.8177 0.0215,-1.6355 0.0215,-2.4532 0,-1.9798 -0.7962,-3.2494 -3.2709,-3.2494 -1.2697,0 -2.733,0.7316 -3.6368,2.0228l-0.0431 0 0.0646 -1.7215 -1.7215 0 -0.0861 10.7166z"/>
  <path class="fil0" d="M127.914 166.551l-3.5723 0.0645c-0.6025,-0.3658 -1.3127,-0.4949 -2.0013,-0.4949 -2.0228,0 -3.8304,1.4203 -3.8304,3.5292 0,1.2481 0.3658,2.1304 1.3557,2.9051 -1.8507,1.0544 -2.4963,1.6139 -2.4963,2.2595 0,0.6456 0.6887,1.2051 2.5824,1.3773l0 0.043c-1.1406,0.6025 -2.8836,1.4669 -2.8836,2.9733 0,2.4747 3.0342,3.0127 4.9494,3.0127 2.2165,0 5.3368,-1.2481 5.3368,-3.8735 0,-1.9188 -1.8076,-2.6074 -4.6051,-3.0163 -3.0558,-0.4519 -3.4001,-0.7532 -3.4001,-1.1405 0,-0.2583 0.1937,-0.5165 1.1836,-1.2482 0.6025,0.2798 1.1836,0.4089 1.8722,0.4089 2.0874,0 3.7444,-1.5064 3.7444,-3.5722 0,-0.6886 -0.1937,-1.3988 -0.7747,-2.0659l2.5393 0.0646 0 -1.2266zm-9.1243 12.6139c0,-0.9899 0.4735,-1.6785 2.3456,-2.6935 3.4647,0.6241 4.3685,1.015 4.3685,2.2416 0,1.7646 -2.238,2.4747 -3.5722,2.4747 -1.2482,0 -3.1419,-0.4303 -3.1419,-2.0228zm5.6381 -9.4075c0,1.3126 -0.6025,2.4317 -2.195,2.4317 -1.2911,0 -2.0013,-1.1191 -2.0013,-2.3672 0,-1.5063 0.9038,-2.5393 2.0659,-2.5393 1.5279,0 2.1304,1.033 2.1304,2.4748z"/>
  <path class="fil0" d="M128.882 176.385c0.9684,0.6241 2.1089,1.0581 3.3571,1.0581 1.7646,0 3.5507,-1.2087 3.5507,-3.253 0,-3.6368 -4.971,-2.69 -4.971,-4.9925 0,-1.2697 0.9253,-1.7862 2.1734,-1.7862 0.7532,0 1.4203,0.3659 2.0444,0.7102l0.7962 -1.0975c-0.7962,-0.538 -1.9152,-0.9038 -3.1203,-0.9038 -1.9583,0 -3.6153,1.1835 -3.6153,3.2064 0,3.5937 4.971,2.4317 4.971,5.1001 0,1.2051 -1.1405,1.7215 -2.0874,1.7215 -0.9253,0 -1.7646,-0.4949 -2.3671,-0.9038l-0.7317 1.1405z"/>
  <line class="fil1" x1="142.117" y1="176.907" x2="139.393" y2= "178.695" />
  <path class="fil2" d="M137.555 119.948l-4.1949 4.9068c0.0025,-0.7649 -0.1275,-1.482 -0.3848,-2.1394 -0.0893,0.051 -0.1895,0.0995 -0.2941,0.1462 -26.0942,11.6581 -23.2931,0.7357 -44.1574,5.0908 0.3299,2.3961 -0.6493,4.4927 -2.281,4.8739 -0.1647,0.0385 -0.5123,0.06 -0.6185,0.014l-0.8175 -3.9159 -8.6624 1.8081c-0.8324,0.1738 -1.576,0.016 -1.6525,-0.3508l0 0c-0.0767,-0.3669 0.5418,-0.809 1.3741,-0.9827l8.6625 -1.8082 -0.8231 -3.9433c0.1844,-0.0959 0.3784,-0.1658 0.578,-0.2075 1.6449,-0.3433 3.3841,1.222 4.0406,3.5546 21.0593,-4.3958 17.697,6.7381 44.1573,-5.0908 0.0252,-0.0113 0.0507,-0.021 0.0761,-0.029 -0.3639,-0.5935 -0.8488,-1.1237 -1.4487,-1.5805l6.4463 -0.3463z"/>
  <path class="fil0" d="M81.483 190.465l0.7747 0 0.0127 -2.1717c0.1969,-0.1905 0.4636,-0.4191 0.7049,-0.4191 0.3238,0 0.4191,0.1842 0.4191,0.4318 0,0.254 -0.0064,0.8636 -0.0127,1.3589l-0.0064 0.8001 0.7747 0 0.0191 -1.6065c0,-0.2032 0.0063,-0.4001 0.0063,-0.7176 0,-0.4953 -0.1778,-0.9652 -0.8509,-0.9652 -0.4254,0 -0.7874,0.1969 -1.035,0.4763l-0.0127 0 0.0127 -1.9495 -0.7747 0 -0.0318 4.7625z"/>
  <path class="fil0" d="M86.5313 189.818c-0.108,0.0762 -0.2223,0.1524 -0.3556,0.1524 -0.1905,0 -0.2604,-0.127 -0.2604,-0.3365 0,-0.235 0,-0.5271 0.0064,-0.8446l0.019 -0.9398 0.7112 0 0 -0.5842 -0.7112 0.0127 0.0254 -1.143 -0.7747 0 -0.0254 1.143 -0.4318 -0.0127 0 0.5842 0.4318 0 -0.019 0.9779c-0.0064,0.2794 -0.0064,0.6223 -0.0064,0.7684 0,0.6794 0.3366,0.9599 0.87,0.9599 0.0952,0 0.2794,-0.0127 0.4826,-0.1281l0.2603 -0.1397 -0.2222 -0.4699z"/>
  <path class="fil0" d="M88.6459 189.818c-0.108,0.0762 -0.2223,0.1524 -0.3556,0.1524 -0.1905,0 -0.2604,-0.127 -0.2604,-0.3365 0,-0.235 0,-0.5271 0.0064,-0.8446l0.019 -0.9398 0.7112 0 0 -0.5842 -0.7112 0.0127 0.0254 -1.143 -0.7747 0 -0.0254 1.143 -0.4318 -0.0127 0 0.5842 0.4318 0 -0.019 0.9779c-0.0064,0.2794 -0.0064,0.6223 -0.0064,0.7684 0,0.6794 0.3366,0.9599 0.87,0.9599 0.0952,0 0.2794,-0.0127 0.4826,-0.1281l0.2603 -0.1397 -0.2222 -0.4699z"/>
  <path class="fil0" d="M89.1793 192.003l0.7747 0 0.0191 -1.7664 0.0127 0c0.1778,0.2286 0.4635,0.3059 0.7239,0.3059 0.9144,0 1.4097,-0.8583 1.4097,-1.7219 0,-0.9652 -0.5588,-1.6447 -1.3589,-1.6447 -0.3366,0 -0.6477,0.1842 -0.8065,0.4255l-0.0127 0 0 -0.3366 -0.7429 0 -0.0191 4.7382zm0.8065 -3.665c0.0444,-0.2731 0.2476,-0.5017 0.5715,-0.5017 0.4635,0 0.7874,0.4191 0.7874,1.0224 0,0.6413 -0.4128,1.0223 -0.8065,1.0223 -0.2794,0 -0.4445,-0.1587 -0.5524,-0.2921l0 -1.2509z"/>
  <path class="fil0" d="M92.8115 190.465l0.8509 0 0 -0.8509 -0.8509 0 0 0.8509zm0 -2.2733l0.8509 0 0 -0.8509 -0.8509 0 0 0.8509z"/>
  <polygon class="fil0" points="94.8943,190.657 96.7422,186.071 96.1707,185.887 94.3165,190.465 "/>
  <polygon class="fil0" points="97.7137,190.657 99.5616,186.071 98.9901,185.887 97.1359,190.465 "/>
  <path class="fil0" d="M100.393 190.465l0.7811 0 0 -2.6162 0.6794 0 0 -0.5842 -0.6604 0 0 -0.4381c0,-0.4001 0.2032,-0.5525 0.489,-0.5525l0.1778 0 0 -0.6223 -0.2477 0c-0.7874,0 -1.2065,0.508 -1.2065,1.2002l0 0.4127 -0.508 0 0 0.5842 0.508 0 -0.0127 2.6162z"/>
  <path class="fil0" d="M104.889 188.961c0,-1.1176 -0.4191,-1.7844 -1.3208,-1.7844 -0.9335,0 -1.4605,0.8509 -1.4605,1.7018 0,1.0033 0.5842,1.6775 1.397,1.6775 0.5207,0 0.9652,-0.2551 1.3017,-0.6297l-0.4445 -0.4064c-0.1968,0.2095 -0.4381,0.4127 -0.7429,0.4127 -0.5334,0 -0.7303,-0.5334 -0.7366,-0.9715l2.0066 0zm-1.9685 -0.5461c0.0317,-0.3175 0.2984,-0.6922 0.6477,-0.6922 0.4064,0 0.5651,0.3493 0.5842,0.6922l-1.2319 0z"/>
  <polygon class="fil0" points="105.524,190.465 106.299,190.465 106.337,185.703 105.562,185.703 "/>
  <path class="fil0" d="M107.048 188.865c0,0.9081 0.4889,1.6902 1.5303,1.6902 0.9652,0 1.5304,-0.7821 1.5304,-1.6902 0,-0.9461 -0.5144,-1.6891 -1.5304,-1.6891 -0.9398,0 -1.5303,0.8446 -1.5303,1.6891zm0.7747 0.0254c0,-0.4445 0.1778,-1.0922 0.7556,-1.0922 0.5207,0 0.7557,0.4255 0.7557,1.0922 0,0.4445 -0.1969,1.0414 -0.7557,1.0414 -0.5778,0 -0.7556,-0.654 -0.7556,-1.0414z"/>
  <polygon class="fil0" points="110.801,190.465 111.652,190.465 111.652,189.615 110.801,189.615 "/>
  <path class="fil0" d="M112.363 190.25c0.3302,0.1969 0.7112,0.3059 1.0986,0.3059 0.6223,0 1.2065,-0.3376 1.2065,-1.0234 0,-1.1621 -1.5304,-0.7811 -1.5304,-1.3907 0,-0.2603 0.2731,-0.381 0.4953,-0.381 0.235,0 0.5207,0.1143 0.7049,0.254l0.3302 -0.4889c-0.2858,-0.2413 -0.7176,-0.3493 -1.0859,-0.3493 -0.6223,0 -1.1811,0.3302 -1.1811,0.9906 0,1.2827 1.4923,0.7874 1.4923,1.4288 0,0.2603 -0.2096,0.3746 -0.4445,0.3746 -0.2921,0 -0.5525,-0.1206 -0.8001,-0.2667l-0.2858 0.5461z"/>
  <path class="fil0" d="M115.557 190.465l0.7811 0 0 -2.6162 0.6794 0 0 -0.5842 -0.6604 0 0 -0.4381c0,-0.4001 0.2032,-0.5525 0.489,-0.5525l0.1778 0 0 -0.6223 -0.2477 0c-0.7874,0 -1.2065,0.508 -1.2065,1.2002l0 0.4127 -0.508 0 0 0.5842 0.508 0 -0.0127 2.6162z"/>
  <polygon class="fil0" points="117.494,190.465 118.345,190.465 118.345,189.615 117.494,189.615 "/>
  <path class="fil0" d="M119.221 190.465l0.7747 0 0.0127 -2.1717c0.1969,-0.1905 0.4636,-0.4191 0.7049,-0.4191 0.3238,0 0.4191,0.1397 0.4191,0.5334 0,0.381 -0.0064,0.762 -0.0127,1.2573l-0.0064 0.8001 0.7747 0 0.0191 -1.6065c0,-0.2032 0.0063,-0.4001 0.0063,-0.7176 0,-0.4953 -0.1778,-0.9652 -0.8509,-0.9652 -0.4254,0 -0.7874,0.1969 -1.035,0.4763l-0.0127 0 0 -0.3874 -0.762 0 -0.0318 3.2004z"/>
  <path class="fil0" d="M125.349 188.961c0,-1.1176 -0.4191,-1.7844 -1.3208,-1.7844 -0.9335,0 -1.4605,0.8509 -1.4605,1.7018 0,1.0033 0.5842,1.6775 1.397,1.6775 0.5207,0 0.9652,-0.2551 1.3017,-0.6297l-0.4445 -0.4064c-0.1968,0.2095 -0.4381,0.4127 -0.7429,0.4127 -0.5334,0 -0.7303,-0.5334 -0.7366,-0.9715l2.0066 0zm-1.9685 -0.5461c0.0317,-0.3175 0.2984,-0.6922 0.6477,-0.6922 0.4064,0 0.5651,0.3493 0.5842,0.6922l-1.2319 0z"/>
  <path class="fil0" d="M127.445 189.818c-0.108,0.0762 -0.2223,0.1524 -0.3556,0.1524 -0.1905,0 -0.2604,-0.127 -0.2604,-0.3365 0,-0.235 0,-0.5271 0.0064,-0.8446l0.019 -0.9398 0.7112 0 0 -0.5842 -0.7112 0.0127 0.0254 -1.143 -0.7747 0 -0.0254 1.143 -0.4318 -0.0127 0 0.5842 0.4318 0 -0.019 0.9779c-0.0064,0.2794 -0.0064,0.6223 -0.0064,0.7684 0,0.6794 0.3366,0.9599 0.87,0.9599 0.0952,0 0.2794,-0.0127 0.4826,-0.1281l0.2603 -0.1397 -0.2222 -0.4699z"/>
 </g>
</svg>
